<?xml version="1.0" encoding="UTF-8" standalone="no" ?>
<!DOCTYPE svg PUBLIC "-//W3C//DTD SVG 1.1//EN" "http://www.w3.org/Graphics/SVG/1.1/DTD/svg11.dtd">
<svg xmlns="http://www.w3.org/2000/svg" xmlns:xlink="http://www.w3.org/1999/xlink" version="1.1" width="1080" height="1080" viewBox="0 0 1080 1080" xml:space="preserve">
<desc>Created with Fabric.js 5.2.4</desc>
<defs>
</defs>
<g transform="matrix(1 0 0 1 540 540)" id="70697c96-132d-436f-8ea4-d28971b26baf"  >
<rect style="stroke: none; stroke-width: 1; stroke-dasharray: none; stroke-linecap: butt; stroke-dashoffset: 0; stroke-linejoin: miter; stroke-miterlimit: 4; fill: rgb(255,255,255); fill-rule: nonzero; opacity: 1; visibility: hidden;" vector-effect="non-scaling-stroke"  x="-540" y="-540" rx="0" ry="0" width="1080" height="1080" />
</g>
<g transform="matrix(1 0 0 1 540 540)" id="17e17efd-b7cc-4bb0-b794-45d4343d2533"  >
</g>
<g transform="matrix(20.55 0 0 20.55 540 565.38)" id="8c10a1be-3d30-495e-89b4-cd05552642b3"  >
<path style="stroke: rgb(0,0,0); stroke-width: 0; stroke-dasharray: none; stroke-linecap: butt; stroke-dashoffset: 0; stroke-linejoin: miter; stroke-miterlimit: 4; fill: rgb(255,255,255); fill-rule: nonzero; opacity: 1;" vector-effect="non-scaling-stroke"  transform=" translate(-11, -11)" d="M 3 2 L 4 2 L 4 1 L 18 1 L 18 2 L 19 2 L 19 20 L 18 20 L 18 21 L 4 21 L 4 20 L 3 20 L 3 2 M 11 9 L 10 9 L 10 8 L 9 8 L 9 9 L 8 9 L 8 10 L 7 10 L 7 3 L 5 3 L 5 19 L 17 19 L 17 3 L 12 3 L 12 10 L 11 10 L 11 9 Z" stroke-linecap="round" />
</g>
</svg>