<?xml version="1.0" standalone="no"?>
<!DOCTYPE svg PUBLIC "-//W3C//DTD SVG 20010904//EN"
 "http://www.w3.org/TR/2001/REC-SVG-20010904/DTD/svg10.dtd">
<svg version="1.0" xmlns="http://www.w3.org/2000/svg"
 width="64.000000pt" height="64.000000pt" viewBox="0 0 64.000000 64.000000"
 preserveAspectRatio="xMidYMid meet">

<g transform="translate(0.000000,64.000000) scale(0.100000,-0.100000)"
fill="#000000" stroke="none">
<path d="M290 615 c-15 -18 -10 -45 13 -59 34 -22 73 27 47 59 -16 19 -44 19
-60 0z m46 -16 c10 -17 -13 -36 -27 -22 -12 12 -4 33 11 33 5 0 12 -5 16 -11z"/>
<path d="M60 568 c1 -35 13 -58 29 -53 11 3 35 -13 71 -50 29 -30 58 -51 63
-48 5 3 -16 31 -47 62 -37 38 -55 63 -51 73 4 10 -1 17 -17 22 -35 9 -48 7
-48 -6z m40 -12 c0 -3 -4 -8 -10 -11 -5 -3 -10 -1 -10 4 0 6 5 11 10 11 6 0
10 -2 10 -4z"/>
<path d="M527 573 c-12 -3 -16 -10 -12 -21 4 -10 -13 -34 -51 -73 -31 -31 -52
-59 -47 -62 5 -3 34 18 63 48 36 37 60 53 71 50 11 -4 18 2 23 17 12 48 5 54
-47 41z m33 -23 c0 -5 -2 -10 -4 -10 -3 0 -8 5 -11 10 -3 6 -1 10 4 10 6 0 11
-4 11 -10z"/>
<path d="M310 495 c0 -19 5 -35 10 -35 6 0 10 16 10 35 0 19 -4 35 -10 35 -5
0 -10 -16 -10 -35z"/>
<path d="M275 431 c-45 -20 -70 -60 -70 -112 0 -42 5 -53 33 -81 47 -48 117
-48 164 0 28 28 33 39 33 82 0 42 -5 54 -31 81 -33 33 -92 46 -129 30z m94
-25 c49 -26 64 -84 34 -139 l-18 -32 -3 30 c-2 17 -9 36 -15 43 -6 8 -11 25
-12 39 -1 55 -69 55 -70 0 -1 -14 -6 -31 -12 -39 -6 -7 -13 -26 -15 -43 l-3
-30 -18 32 c-20 38 -21 69 -3 102 26 47 84 63 135 37z m-33 -47 c10 -17 -13
-36 -27 -22 -12 12 -4 33 11 33 5 0 12 -5 16 -11z m19 -99 c0 -33 -2 -35 -35
-35 -29 0 -36 4 -38 23 -6 40 5 54 40 50 30 -3 33 -6 33 -38z"/>
<path d="M20 345 c-15 -18 -10 -45 13 -59 34 -22 73 27 47 59 -16 19 -44 19
-60 0z m46 -16 c10 -17 -13 -36 -27 -22 -12 12 -4 33 11 33 5 0 12 -5 16 -11z"/>
<path d="M560 345 c-15 -18 -10 -45 13 -59 34 -22 73 27 47 59 -16 19 -44 19
-60 0z m46 -16 c10 -17 -13 -36 -27 -22 -12 12 -4 33 11 33 5 0 12 -5 16 -11z"/>
<path d="M110 320 c0 -5 16 -10 35 -10 19 0 35 5 35 10 0 6 -16 10 -35 10 -19
0 -35 -4 -35 -10z"/>
<path d="M460 320 c0 -5 16 -10 35 -10 19 0 35 5 35 10 0 6 -16 10 -35 10 -19
0 -35 -4 -35 -10z"/>
<path d="M160 175 c-37 -37 -60 -53 -71 -50 -13 4 -19 -2 -24 -25 -9 -39 -4
-44 35 -35 23 5 30 11 25 23 -4 10 13 34 51 73 31 31 52 59 47 62 -5 3 -34
-18 -63 -48z m-65 -85 c3 -5 1 -10 -4 -10 -6 0 -11 5 -11 10 0 6 2 10 4 10 3
0 8 -4 11 -10z"/>
<path d="M417 223 c-3 -5 18 -34 48 -63 37 -37 53 -60 50 -71 -4 -13 2 -19 25
-24 39 -9 44 -4 35 35 -5 23 -11 30 -23 25 -10 -4 -34 13 -73 51 -31 31 -59
52 -62 47z m143 -133 c0 -5 -5 -10 -11 -10 -5 0 -7 5 -4 10 3 6 8 10 11 10 2
0 4 -4 4 -10z"/>
<path d="M310 145 c0 -19 5 -35 10 -35 6 0 10 16 10 35 0 19 -4 35 -10 35 -5
0 -10 -16 -10 -35z"/>
<path d="M290 75 c-26 -32 13 -81 48 -59 22 14 27 41 12 59 -16 19 -44 19 -60
0z m46 -16 c10 -17 -13 -36 -27 -22 -12 12 -4 33 11 33 5 0 12 -5 16 -11z"/>
</g>
</svg>
