<?xml version="1.0" encoding="UTF-8" standalone="no" ?>
<!DOCTYPE svg PUBLIC "-//W3C//DTD SVG 1.1//EN" "http://www.w3.org/Graphics/SVG/1.1/DTD/svg11.dtd">
<svg xmlns="http://www.w3.org/2000/svg" xmlns:xlink="http://www.w3.org/1999/xlink" version="1.1" width="1080" height="1080" viewBox="0 0 1080 1080" xml:space="preserve">
<desc>Created with Fabric.js 5.2.4</desc>
<defs>
</defs>
<rect x="0" y="0" width="100%" height="100%" fill="transparent"></rect>
<g transform="matrix(1 0 0 1 540 540)" id="2661aba9-f02c-401a-8c68-1aad13745c4f"  >
<rect style="stroke: none; stroke-width: 1; stroke-dasharray: none; stroke-linecap: butt; stroke-dashoffset: 0; stroke-linejoin: miter; stroke-miterlimit: 4; fill: rgb(255,255,255); fill-rule: nonzero; opacity: 1; visibility: hidden;" vector-effect="non-scaling-stroke"  x="-540" y="-540" rx="0" ry="0" width="1080" height="1080" />
</g>
<g transform="matrix(1 0 0 1 540 540)" id="a7d4818d-5c1f-4ba0-b714-6d208a04b20e"  >
</g>
<g transform="matrix(1 0 0 1 540 540)" id="5aaff0b2-d27c-4a86-b0da-71cc3783846f"  >
<path style="stroke: rgb(0,0,0); stroke-width: 0; stroke-dasharray: none; stroke-linecap: butt; stroke-dashoffset: 0; stroke-linejoin: miter; stroke-miterlimit: 4; fill: rgb(255,255,255); fill-rule: nonzero; opacity: 1;" vector-effect="non-scaling-stroke"  transform=" translate(-11, -11)" d="M 3 2 L 4 2 L 4 1 L 18 1 L 18 2 L 19 2 L 19 20 L 18 20 L 18 21 L 4 21 L 4 20 L 3 20 L 3 2 M 11 9 L 10 9 L 10 8 L 9 8 L 9 9 L 8 9 L 8 10 L 7 10 L 7 3 L 5 3 L 5 19 L 17 19 L 17 3 L 12 3 L 12 10 L 11 10 L 11 9 Z" stroke-linecap="round" />
</g>
<g transform="matrix(1 0 0 1 540 540)"  >
<rect style="stroke: none; stroke-width: 1; stroke-dasharray: none; stroke-linecap: butt; stroke-dashoffset: 0; stroke-linejoin: miter; stroke-miterlimit: 4; fill: rgb(255,255,255); fill-rule: nonzero; opacity: 1; visibility: hidden;" vector-effect="non-scaling-stroke"  x="-540" y="-540" rx="0" ry="0" width="1080" height="1080" />
</g>
<g transform="matrix(9.67 0 0 9.67 513.63 499.39)"  >
<g style="" vector-effect="non-scaling-stroke"   >
		<g transform="matrix(0.13 0 0 -0.13 0 -36)"  >
<path style="stroke: none; stroke-width: 1; stroke-dasharray: none; stroke-linecap: butt; stroke-dashoffset: 0; stroke-linejoin: miter; stroke-miterlimit: 4; fill: rgb(255,255,255); fill-rule: nonzero; opacity: 1;" vector-effect="non-scaling-stroke"  transform=" translate(-319.97, -589.88)" d="M 290 615 C 275 597 280 570 303 556 C 337 534 376 583 350 615 C 334 634 306 634 290 615 z M 336 599 C 346 582 323 563 309 577 C 297 589 305 610 320 610 C 325 610 332 605 336 599 z" stroke-linecap="round" />
</g>
		<g transform="matrix(0.13 0 0 -0.13 -23.75 -23.77)"  >
<path style="stroke: none; stroke-width: 1; stroke-dasharray: none; stroke-linecap: butt; stroke-dashoffset: 0; stroke-linejoin: miter; stroke-miterlimit: 4; fill: rgb(255,255,255); fill-rule: nonzero; opacity: 1;" vector-effect="non-scaling-stroke"  transform=" translate(-141.87, -498.12)" d="M 60 568 C 61 533 73 510 89 515 C 100 518 124 502 160 465 C 189 435 218 414 223 417 C 228 420 207 448 176 479 C 139 517 121 542 125 552 C 129 562 124 569 108 574 C 73 583 60 581 60 568 z M 100 556 C 100 553 96 548 90 545 C 85 542 80 544 80 549 C 80 555 85 560 90 560 C 96 560 100 558 100 556 z" stroke-linecap="round" />
</g>
		<g transform="matrix(0.13 0 0 -0.13 23.69 -23.73)"  >
<path style="stroke: none; stroke-width: 1; stroke-dasharray: none; stroke-linecap: butt; stroke-dashoffset: 0; stroke-linejoin: miter; stroke-miterlimit: 4; fill: rgb(255,255,255); fill-rule: nonzero; opacity: 1;" vector-effect="non-scaling-stroke"  transform=" translate(-497.66, -497.84)" d="M 527 573 C 515 570 511 563 515 552 C 519 542 502 518 464 479 C 433 448 412 420 417 417 C 422 414 451 435 480 465 C 516 502 540 518 551 515 C 562 511 569 517 574 532 C 586 580 579 586 527 573 z M 560 550 C 560 545 558 540 556 540 C 553 540 548 545 545 550 C 542 556 544 560 549 560 C 555 560 560 556 560 550 z" stroke-linecap="round" />
</g>
		<g transform="matrix(0.13 0 0 -0.13 0 -23.35)"  >
<path style="stroke: none; stroke-width: 1; stroke-dasharray: none; stroke-linecap: butt; stroke-dashoffset: 0; stroke-linejoin: miter; stroke-miterlimit: 4; fill: rgb(255,255,255); fill-rule: nonzero; opacity: 1;" vector-effect="non-scaling-stroke"  transform=" translate(-320, -495)" d="M 310 495 C 310 476 315 460 320 460 C 326 460 330 476 330 495 C 330 514 326 530 320 530 C 315 530 310 514 310 495 z" stroke-linecap="round" />
</g>
		<g transform="matrix(0.13 0 0 -0.13 0 0)"  >
<path style="stroke: none; stroke-width: 1; stroke-dasharray: none; stroke-linecap: butt; stroke-dashoffset: 0; stroke-linejoin: miter; stroke-miterlimit: 4; fill: rgb(255,255,255); fill-rule: nonzero; opacity: 1;" vector-effect="non-scaling-stroke"  transform=" translate(-320, -319.91)" d="M 275 431 C 230 411 205 371 205 319 C 205 277 210 266 238 238 C 285 190 355 190 402 238 C 430 266 435 277 435 320 C 435 362 430 374 404 401 C 371 434 312 447 275 431 z M 369 406 C 418 380 433 322 403 267 L 385 235 L 382 265 C 380 282 373 301 367 308 C 361 316 356 333 355 347 C 354 402 286 402 285 347 C 284 333 279 316 273 308 C 267 301 260 282 258 265 L 255 235 L 237 267 C 217 305 216 336 234 369 C 260 416 318 432 369 406 z M 336 359 C 346 342 323 323 309 337 C 297 349 305 370 320 370 C 325 370 332 365 336 359 z M 355 260 C 355 227 353 225 320 225 C 291 225 284 229 282 248 C 276 288 287 302 322 298 C 352 295 355 292 355 260 z" stroke-linecap="round" />
</g>
		<g transform="matrix(0.13 0 0 -0.13 -36 0)"  >
<path style="stroke: none; stroke-width: 1; stroke-dasharray: none; stroke-linecap: butt; stroke-dashoffset: 0; stroke-linejoin: miter; stroke-miterlimit: 4; fill: rgb(255,255,255); fill-rule: nonzero; opacity: 1;" vector-effect="non-scaling-stroke"  transform=" translate(-49.97, -319.88)" d="M 20 345 C 5 327 10 300 33 286 C 67 264 106 313 80 345 C 64 364 36 364 20 345 z M 66 329 C 76 312 53 293 39 307 C 27 319 35 340 50 340 C 55 340 62 335 66 329 z" stroke-linecap="round" />
</g>
		<g transform="matrix(0.13 0 0 -0.13 36 0)"  >
<path style="stroke: none; stroke-width: 1; stroke-dasharray: none; stroke-linecap: butt; stroke-dashoffset: 0; stroke-linejoin: miter; stroke-miterlimit: 4; fill: rgb(255,255,255); fill-rule: nonzero; opacity: 1;" vector-effect="non-scaling-stroke"  transform=" translate(-589.97, -319.88)" d="M 560 345 C 545 327 550 300 573 286 C 607 264 646 313 620 345 C 604 364 576 364 560 345 z M 606 329 C 616 312 593 293 579 307 C 567 319 575 340 590 340 C 595 340 602 335 606 329 z" stroke-linecap="round" />
</g>
		<g transform="matrix(0.13 0 0 -0.13 -23.33 -0.02)"  >
<path style="stroke: none; stroke-width: 1; stroke-dasharray: none; stroke-linecap: butt; stroke-dashoffset: 0; stroke-linejoin: miter; stroke-miterlimit: 4; fill: rgb(255,255,255); fill-rule: nonzero; opacity: 1;" vector-effect="non-scaling-stroke"  transform=" translate(-145, -320)" d="M 110 320 C 110 315 126 310 145 310 C 164 310 180 315 180 320 C 180 326 164 330 145 330 C 126 330 110 326 110 320 z" stroke-linecap="round" />
</g>
		<g transform="matrix(0.13 0 0 -0.13 23.34 -0.02)"  >
<path style="stroke: none; stroke-width: 1; stroke-dasharray: none; stroke-linecap: butt; stroke-dashoffset: 0; stroke-linejoin: miter; stroke-miterlimit: 4; fill: rgb(255,255,255); fill-rule: nonzero; opacity: 1;" vector-effect="non-scaling-stroke"  transform=" translate(-495, -320)" d="M 460 320 C 460 315 476 310 495 310 C 514 310 530 315 530 320 C 530 326 514 330 495 330 C 476 330 460 326 460 320 z" stroke-linecap="round" />
</g>
		<g transform="matrix(0.13 0 0 -0.13 -23.67 23.69)"  >
<path style="stroke: none; stroke-width: 1; stroke-dasharray: none; stroke-linecap: butt; stroke-dashoffset: 0; stroke-linejoin: miter; stroke-miterlimit: 4; fill: rgb(255,255,255); fill-rule: nonzero; opacity: 1;" vector-effect="non-scaling-stroke"  transform=" translate(-142.45, -142.23)" d="M 160 175 C 123 138 100 122 89 125 C 76 129 70 123 65 100 C 56 61 61 56 100 65 C 123 70 130 76 125 88 C 121 98 138 122 176 161 C 207 192 228 220 223 223 C 218 226 189 205 160 175 z M 95 90 C 98 85 96 80 91 80 C 85 80 80 85 80 90 C 80 96 82 100 84 100 C 87 100 92 96 95 90 z" stroke-linecap="round" />
</g>
		<g transform="matrix(0.13 0 0 -0.13 23.71 23.66)"  >
<path style="stroke: none; stroke-width: 1; stroke-dasharray: none; stroke-linecap: butt; stroke-dashoffset: 0; stroke-linejoin: miter; stroke-miterlimit: 4; fill: rgb(255,255,255); fill-rule: nonzero; opacity: 1;" vector-effect="non-scaling-stroke"  transform=" translate(-497.77, -142.45)" d="M 417 223 C 414 218 435 189 465 160 C 502 123 518 100 515 89 C 511 76 517 70 540 65 C 579 56 584 61 575 100 C 570 123 564 130 552 125 C 542 121 518 138 479 176 C 448 207 420 228 417 223 z M 560 90 C 560 85 555 80 549 80 C 544 80 542 85 545 90 C 548 96 553 100 556 100 C 558 100 560 96 560 90 z" stroke-linecap="round" />
</g>
		<g transform="matrix(0.13 0 0 -0.13 0 23.32)"  >
<path style="stroke: none; stroke-width: 1; stroke-dasharray: none; stroke-linecap: butt; stroke-dashoffset: 0; stroke-linejoin: miter; stroke-miterlimit: 4; fill: rgb(255,255,255); fill-rule: nonzero; opacity: 1;" vector-effect="non-scaling-stroke"  transform=" translate(-320, -145)" d="M 310 145 C 310 126 315 110 320 110 C 326 110 330 126 330 145 C 330 164 326 180 320 180 C 315 180 310 164 310 145 z" stroke-linecap="round" />
</g>
		<g transform="matrix(0.13 0 0 -0.13 0.01 36)"  >
<path style="stroke: none; stroke-width: 1; stroke-dasharray: none; stroke-linecap: butt; stroke-dashoffset: 0; stroke-linejoin: miter; stroke-miterlimit: 4; fill: rgb(255,255,255); fill-rule: nonzero; opacity: 1;" vector-effect="non-scaling-stroke"  transform=" translate(-320.07, -49.88)" d="M 290 75 C 264 43 303 -6 338 16 C 360 30 365 57 350 75 C 334 94 306 94 290 75 z M 336 59 C 346 42 323 23 309 37 C 297 49 305 70 320 70 C 325 70 332 65 336 59 z" stroke-linecap="round" />
</g>
</g>
</g>
</svg>